<mxfile host="app.diagrams.net" agent="Mozilla/5.0 (Windows NT 10.0; Win64; x64) AppleWebKit/537.36 (KHTML, like Gecko) Chrome/128.0.0.0 Safari/537.36" version="24.7.12">
  <diagram name="PÃ¡gina-1" id="GKcR5AiP1vR-V91jyIXG">
    <mxGraphModel dx="934" dy="494" grid="1" gridSize="10" guides="1" tooltips="1" connect="1" arrows="1" fold="1" page="1" pageScale="1" pageWidth="827" pageHeight="1169" math="0" shadow="0">
      <root>
        <mxCell id="0" />
        <mxCell id="1" parent="0" />
        <mxCell id="q3oR6O9OtUr-k6GNEERS-3" value="&lt;span style=&quot;background-color: rgb(255, 255, 255);&quot;&gt;Events&lt;/span&gt;" style="swimlane;fontStyle=0;childLayout=stackLayout;horizontal=1;startSize=30;horizontalStack=0;resizeParent=1;resizeParentMax=0;resizeLast=0;collapsible=1;marginBottom=0;whiteSpace=wrap;html=1;labelBackgroundColor=#EA6B66;" vertex="1" parent="1">
          <mxGeometry x="60" y="120" width="460" height="510" as="geometry">
            <mxRectangle x="410" y="160" width="80" height="30" as="alternateBounds" />
          </mxGeometry>
        </mxCell>
        <mxCell id="q3oR6O9OtUr-k6GNEERS-4" value="&lt;li&gt;&lt;code&gt;start&lt;font face=&quot;Helvetica&quot;&gt;&amp;nbsp;&lt;/font&gt;&lt;/code&gt;&lt;/li&gt;&lt;li&gt;&lt;code&gt;end&lt;/code&gt;&amp;nbsp;&lt;/li&gt;" style="text;strokeColor=none;fillColor=none;align=left;verticalAlign=middle;spacingLeft=4;spacingRight=4;overflow=hidden;points=[[0,0.5],[1,0.5]];portConstraint=eastwest;rotatable=0;whiteSpace=wrap;html=1;" vertex="1" parent="q3oR6O9OtUr-k6GNEERS-3">
          <mxGeometry y="30" width="460" height="50" as="geometry" />
        </mxCell>
        <mxCell id="q3oR6O9OtUr-k6GNEERS-5" value="&lt;li&gt;&lt;code style=&quot;background-color: initial;&quot;&gt;title&lt;/code&gt;&lt;span style=&quot;background-color: initial;&quot;&gt;&amp;nbsp;&lt;/span&gt;&lt;/li&gt;&lt;li&gt;&lt;code style=&quot;background-color: initial;&quot;&gt;allDay&lt;/code&gt;&lt;span style=&quot;background-color: initial;&quot;&gt;&amp;nbsp;&lt;/span&gt;&lt;/li&gt;&lt;li&gt;&lt;code style=&quot;background-color: initial;&quot;&gt;resource&lt;/code&gt;&lt;/li&gt;&lt;li&gt;&lt;code style=&quot;background-color: initial;&quot;&gt;desc&lt;/code&gt;&lt;span style=&quot;background-color: initial;&quot;&gt;&amp;nbsp;&lt;/span&gt;&lt;/li&gt;&lt;li&gt;&lt;code style=&quot;background-color: initial;&quot;&gt;tooltipAccessor&lt;/code&gt;&lt;span style=&quot;background-color: initial;&quot;&gt;&amp;nbsp;&lt;/span&gt;&lt;/li&gt;&lt;li&gt;&lt;code style=&quot;background-color: initial;&quot;&gt;url&lt;/code&gt;&lt;span style=&quot;background-color: initial;&quot;&gt;&amp;nbsp;&lt;/span&gt;&lt;/li&gt;&lt;li&gt;&lt;code style=&quot;background-color: initial;&quot;&gt;className&lt;/code&gt;&lt;/li&gt;&lt;li&gt;&lt;code style=&quot;background-color: initial;&quot;&gt;style&lt;/code&gt;&lt;span style=&quot;background-color: initial;&quot;&gt;&amp;nbsp;&lt;/span&gt;&lt;/li&gt;&lt;li&gt;&lt;code style=&quot;background-color: initial;&quot;&gt;recurring&lt;/code&gt;&lt;/li&gt;" style="text;strokeColor=none;fillColor=none;align=left;verticalAlign=middle;spacingLeft=4;spacingRight=4;overflow=hidden;points=[[0,0.5],[1,0.5]];portConstraint=eastwest;rotatable=0;whiteSpace=wrap;html=1;" vertex="1" parent="q3oR6O9OtUr-k6GNEERS-3">
          <mxGeometry y="80" width="460" height="140" as="geometry" />
        </mxCell>
        <mxCell id="q3oR6O9OtUr-k6GNEERS-6" value="&lt;p&gt;&lt;img height=&quot;279&quot; width=&quot;451&quot; style=&quot;background-color: initial;&quot; src=&quot;data:image/png;base64,iVBORw0KGgoAAAANSUhEUgAAAcMAAAEXCAYAAADRKS/nAAAAAXNSR0IArs4c6QAAAARnQU1BAACxjwv8YQUAAAAJcEhZcwAAFiUAABYlAUlSJPAAAGYISURBVHhe7Z0HfFTF9sfPtmx2s5seSCEhNCkiTYqCNBEFpaoINlBAiiCo8P7Ks7cn+lAfihRFeOpDEQtVUUCkiYKKHUFKCCUBEiCkbbL1P+fs3N1NSNk0WNjz5XM/uTNz69x75zfnzCxHZTabXcAwDMMwQYxa/mUYhmGYoIXFkGEYhgl6WAwZhmGYoIfFkGEYhgl6WAwZhmGYoIfFkGEYhgl6WAwZhmGYoIfFkGEYhgl6WAwZhmGYoIfFkGEYhgl6WAwZhmGYoIfF8CJm1apVkJubSwuuMwzDMNUjYMUw+dHlYGjWWaYCj2PHjsm1C8tLL70E4eHhMGjQIJnDMAzDVJWAFUONMVyuBSZms1muMQzDMBc7VRLDsNa9IPWFLdBo5naI6H67zBWoVNDg4Q8oP3rAFFDrjZQdM/BBCEloSnlYFnXDeFCpNVSGJE56m47X8MkvQW1wiwvug9uqQgwQP+Y/tJ409T0qq4hOnTrBJ598Qi7DXbt2wciRIyl/69atsGjRIlpHcLuTJ0/CtGnTKP3222/D4cOH4ezZs/DQQw9RHrJnzx46xpkzZ6jsiSeeoHzFLem7npGRQWlk/PjxcPr0acjKyoKhQ4fKXIZhGCaQ8VsMTe1vgLjbnoDDz98EaTO6CZFrRvnoykx9ZgOc3fIBHPpndzC1uQ4aPr2OypCkKf+FkHqN4NDjvSCy9yiod/dMyq8/6t+Qt2MFpD/RG47NGQ3G5ldT/qnV/4G0R7uCy2qB4+88SOvHZruFrSI2bNgAjRs3JpdhWloazJ49G5o2bQoPP/ww3HjjjTBu3DjaDkVtyZIl8Morr8CsWbOgV69e8Nprr0GXLl1gxowZ0LdvX9oO+c9//gNXX301jBkzBqZPn055eHxcfNcTExMpvWLFCvj3v/8NXbt2hTvuuANuu+02yq+Inj17ekS1LHFlGIZh6h7/xFBYfqZ218PprxaA05IH4HJB1rJnqcjUri+odHrI+3ENuJwOOLXqVXDZbaDS6qg8/5f1cOK9R0SeVeybDyqNlvIdeafA2PIasgjtpzPEdl4BrSodOnQg6+3FF1+k9COPPALp6enQvn17+OGHH8BoNMK1115LZZdddhmsW+c+Fwrg/PnzSQzREvz111/hyiuvpDIERRPz0eJUiTqoDLQIXaJuOnfuDOvXr4fbb/exnsth8+bNHlEtLa4MwzDM+cEvMUTB0oTHQeEfm2WOF4051i2QEmvmPnAWF5CbE8nftZaEEHE53H+R7M9mQu73yyH2lhnkCg2/+mZZUnVQ4CIjI+Gdd94hywrdpGglNmnShMpR5BQxjI6OhrVr19J6XFwcPPXUUx6LDMUxISGByhAUwaowevRoiIiIgFGjRtHx0FI0mUyytGzYMmQYhrnw+CWG6LJ0FuWDPrmlzPGCwqeM9yHoPlXrw0oIZHlY9u0kqxGtzIged8ncqpOZmUljdMOHDy9hYc2c6XbJbty4ETQaDfTv3x+OHDlCeQgKD7o/ffeZOnWqLK0+ffr0geeff55crGPHjpW5DMMwTKCiMpvNLrleIRpTFKQ8/rlMuQXy0JN9QKUNgXp3PAfGVt1lgRMKd2+DE+8/SpNhCvdsJ9FDUh5fA9aMfXB80UM0KQYn1ygU/rmF9lHAiTWKS9Waub/SccNDhw6R1ecLipsCTqK56qqrSOzQhYmgVbZ69WpaVxg4cCC5LtE9ipNhcB1B4fQ93okTJ8BgkNZvfj65Nnfu3AktWrSgPOTo0aMwceJEzzFqG/xt4Y4dO+CFF16QOQzDMEx18FsMmcCDxZBhGKZ2qNJPKxiGYRjmUoTF8CIHZ86iC5f/OzaGYZjqw25ShmEYJuhhy5BhGIYJelgMGYZhmKCHxZBhGIYJelgMGYZhmKCHxZBhGIYJelgMGYZhmKCHxZBhGIYJelgMGYZhmKCHxZBhGIYJelgMGYZhmKCnzsUQI9Dj/52JIZEYhmEYJhCpUzHs2rUrOJ1OWLNmTYk4fwzDMAwTSNSpGKakpMC+ffvgjjvukDkMwzAME3jwmCHDMAwT9NSpGA4dOhROnz4tUwzDMAwTmNSZGOKEmX79+sHixYtlDsMwDMMEJnUa3HfdunU0gQZFkWEYhmEClTp1ky5atAiio6NlimEYhmECE55AwzAMwwQ9dS6GRqMROnToIFMMwzAME3jU6Zghgv8DjUqlgoyMDP7hPcMwDBOQ1Lll+Omnn0JeXp5MMQzDMEzgUeeWIcMwDMMEOjyBhmEYhgl6WAwZhmGYoIfFkGEYhgl6WAwZhmGYoIfFkGEYhgl6WAwZhmGYoIfFkGEYhgl6WAwZhmGYoIfFkGEYhgl6WAwZhmGYoOeiE8PfmkyGOyPaylTl4Pa4bEkdK3PqBmdcBOQteBCs118JBU/cCZYpQ2XJ+QevA5eysLdOhfzZ94MjpZ7MubhR7jX/9Uky58KB12Fv1VCmqo/yLrnCQunvhXyXGCZYCEgxrEi42hyYA0vO/ipTXnCf5iGxMuUFt38pe6tM1R2qwmLPX/XZQlAfP01pRGmwlQUFqS4xj/8PLWWh/eMQmKbOBc3hkzLn4qaiez3f4HVod6fLVPXxvEsFRfTX911iGKZuYDdpLaIqtoHqdB6ozhYAOJwy143SaGsOZIKtdzuZyzBlg++Sh1LvEsMwtU9ARa1Ad2Zpthamw6TM1eQafSS2O+UNO7IU9lqzad03XwH3mX7iS7A43Q0KbjM+qhP0OLSQ0ohBrYMdjcbLFECWvQD6pC+WKYA5c+bAyJEjITw8XOZUH7QGFevF3r4pFN/UGcKe/4DS+bPGgctspHXE9PB8sgjy/z0ONEeywPD6csovvq0naIRVh5ZH3rwpoMq3gCs8jMpCP/wGdJvc1jKeC8HG1DTlTVpHnIkxUPDU3TIlEA2s+f7XySVX+H/DAfQ6cIkFUR/NgrDnltB6uajEueZNFX/FCibF+ULnr6HrK3j8DnAme92wIV//DPplm8ntV/Cv0eAKDZElAGFPvwfqzIotn9J1pEk/CcZ/uetPAd2kvvdbEbarWkLRvTfIlLCWfzkAhnmr6RyWyYPBkVpfloiyP9PpGZR+Hng+z/0+cSc4G8RRvvL8ELrfZ0eBy2SgNGJ8eZnoEGXQufC+PLhcYJ44W/yVaYZhzisBZRmiSxOXHEeRZx2FEEHXaFkuTyUf90GRVPZRhLA8rg9rCivy/qLtOx+cD2aNHjQqb3Vs27YNLBaLTNUSajUU33wNaH9NoySKgssYCqaH5pEoaPYeAdvVraisQsRxsDE1PbIQdFt+A/vlXrcrii6KT2mKh4rz/nWYyk3T3xLHUIEr0iRLBSiOE18H40sfgSs2QmaWj61zC1BZ7aBf/R2YJ/wHtD/vB5W0YFAIjS98QPkha74n8VHAe9av3A7myXNAnXEKHI3iZUnZKHUU8uUPbsta1JEjxS081cU66GrQL91E12d8+SNRf+5xPmufdiSEdO2iLkLf+ZLyKwM7Dnht2IkoDQqh/rNtJNTa39PAdk1ryrf27wTqY9l0DSTiTpc4d8V1wTBM3RGUbtIojQFGRbaDIeaWZI3ubDwBQlVaSNVFyi0Ali5dCvXrey2EmkLjhcKi0+7cSwKC2Ds0FWaOGvJfmwgFT48ER/NkIRwtqKwi0AozvL4CVDn5ELLuJzpGZTiaNwDDfz6jdVVeIYRs/KXE2CUKMjidoDmY6bH2KgInChmffV+I3Q6yZkIXf0VChZamJu24e0xS5OtXf08WkgIKRsgXO4Wa2t2iLYS9IpQ6svbrRHWIdYTX5zLo5RZVxxkTDsUjekHe/AfdVrFOS/m2bq1BfeSk+9pFXaD1XVPofr/60W05izpCIcc6snVqTh0PrCMq+2Aj2EUewzAXhqAUwyKXHTLt+dA17S2yDJXlgLXuJiqg5YCLrW8HcCZEU54qpwB023d7ynBR3KeIM9ztXnMKS83eQohATRBWm6+r0ZEcR+Ob1UVlsZZwhSqo7E66Xg+oq67q+/7KqiNcVBb3JJPqUvp4iEoINAgr1J0QdVRqopPv86gOjiYJVG9YR3gulxBFBUfjBFBnnpIphmHONwEphpGaUAhXV63nj/uMiLhCpioGXag/WY7B9JhrRAWUbQUNHDgQTpw4IVO1h+b3NLD26eBeP5IlLITLwBXl466UUGNZL4osJ8vUoeBMOnembFVQn8zxjJOhe9TRLMltBVYTzd6jUHTntWDr5f6ZS9GovmS1qXLyhOga3D/dEFVbPLwXqM/k0zbVQamj4iFdZU7NUeVZwHrtuZOYVFlnwRltJtesZfyAEtuUfh5+E6KjfXApvv1a0P34N9WROv0kWO65nurIZdSTK1nz12G5U8WsWLECfv/9d5liGKY2CKgJNAo9janwWvyNoFWpPRNoVqbcCY10ojHyYULmKthe6G5AcJ/x0Z2gtb6+ZwKNUaWDb1JHU7mC7z4TozrDxOjOtI6gdagwYsQImD17dq24Sn0n0CCUniDSoubRWih86BaPqy70/Q2g2/YHWXFFd/cBe5vGYFi4FlyGEFCdyqMJG76TN9Dlho0sTuzA9YLn76XjKCjHQwofGU4WCLoo0QLFKfvKBBrTP96ibRB/J6MUD+kGtm6t6FpxgkzIpt/IvYiWU+GTd9GEHHSZGmcupe3RXVr48C2eyTnK+JlyfeWBdVR8aw/3tUuwPiu733IRAlTw5N00qYiSymQjkW/rejkUjewLIWt/AO3P+8A6uBvVbenngdsoz0CZtKSgyi2ksUj8iUT+qxPcmcI6pjra+Is7LbBMGkTHQ6vd+MrHNNPYH5566imYNm1arUzuYhjGTUCKIcMEAvgDett1HTwzSKtKafGvLXr37g0rV65kMWSYWiQoxwwZ5mJl1apVJIRfffWVzGEYpjZgMWSYi4z09HQYNmyYTDEMUxuwm5RhGIYJetgyZBiGYYIeFkOGYRgm6GExZBiGYYIeFkOGYRgm6GExZBiGYYIeFkOGYRgm6GExZBiGYYIeFkOGYRgm6GExZBiGYYIeFkPGL1q0aAHvvvsumEznhptiLk2WL19Oz51hggEWQ8Yv5s2bBxER1Qtqy1ycREZGwksvvSRTDHNpc1H936TNQ2JhWERreD5rk8ypGY/H9YKPz/4Be63ZMifwidNo4ZcG7jiACtcc+wvS7JVHfp8Z3QDeyz8Fu60WmeMfDz/8MNx3333QsmVLmXNuLMgXsjfDR2fdAWfHRF4JU2OupnXkgcw1sLnwEGhUavip8UTRA3MHVHaCC9odKBk38YMGw6CVvh58kvtnjZ5zii4S1qTcJVNu2h6YgyEkq0U3YwpMib4aWurj4KXsrbDk7K+yBGBUZHu6ZwwwPezI0hq9T1gzLcQ5PmxwG9WTb4xNLBvtU7dFLjv84/iXVLfV5QnxDQwL975Ptx39CPYUZ8mU+z8Fx/iJ//3vf2UOw1yaBJxlGKrSikbsbtjZeALMTRhIeTEaI/zWZDJ8nDwCbhMfLq7j0lU0UEiKLgI2pY6hvAWJg2VT6waDArcPTaBGdkvqWAoYfGdEW9oWj4XHVI5nUOvkXlWPdJ809T3QxTWEhPvmQKMXt4HhsqtkiWjE1BpInrGc8pMefJ/yQhKaQsMn19K6L6nPfi3Xyuf9vGxISv+Flo5H/4SvE5vDVaFu9+WgsEhIT2kLxxq2g4cj4ikPwfTd5lhYn9Cc1nExirpQWBCXSnnfJrU856V45JFHqD58mXdmJzXUuHRNewsmRXWhzgrW/QQhkkpZp4PzYFZ8f9rH4XKS+CllP1syaR8FDNC8Jm8v5DoqF/bK6GdqBqOOfeo9V1EmhKlDZGnVucqQDDOzt5AQliZea4Jbjn5IQaVrg27GhtDhwFyZ8vLP2J4l6nabOJ9St9UB3/e+YU09x+t56B14Pf4mWepm7Nix8OKLL1JniGEuZQJKDPUqDTxbrw+JG4riNaJR8BWo8ngjYQBEawy0frVotK4I9YoA9q7fSRxKEfCx536TqbksqZgbbrgBDAb3Mf0lcdLbENqkA6ofxN06Q+YCxN76GGgj6lN+SHwTMHceBM7CPHAWW0AtRcyDtmoNdqbDJupNDVeEuK91XmyqEHx3d2BaZLxnvSK6imsYYIyk9VStHp6ISqJ1BayH/fv3y1TZnHUWwWmHhQRnn/WUzAW4Jfxyeq7lgfso/F9sd1ie95dM1YxvCg7Cm6IzdU9kB2gSEk0WXb7TKkurziunviVBLQsUyCx7gUzVDLRcF575kazm0jQNifHULX4fHUOTKqzbyohSh8JOy1FaD1frycJFYfdl/fr1YDQaoV27djKHYS5NAkoMo4UFiI2Wb4/e4rTBKUchraMLalnuH56y7YWHab/Bh5d48nCbQWbvoH+81gwdhXWCZdjzvd7UlFxcmMZj4fbKvnguhcmTJ1c5kvjpNa9D2qNdadGEx8lcAOPl3T35uETfNAXsZ0+A9fgB0IRFkFWJAknYq9dgNxEihigWIy5oQV6mC/XkY7pv5l5PeaGw1NCi/F+9xp48XO4wxdA+SNeuXSE/P1+mymZR4s0wNmMFZDkKROOshb3FWWSRo7V9RWh9yHEUyS291BeNLgon7oNyfUdEG3hZiIrvM6gJKBqbC9PgwZirYXnyHWVadBcb0VqDp26/bzwensz6usy69RezEMA/i0/CxtTR5Fkpr9tUVFQEnTp1kimGuTQJKDHMtOfBv7O3wbtJt8A/Yq6Bhjq3tVIZ6Grb3mgcNb7o9vQFG1ell31GWCGTMlfTel1QsHuLXPOClp9aHwaNZm73LOoQt0DZTx8DbXQSqIRVF3Z5T2E5qsBZxfG80txrjoXDDd1uUnSLVgaKJVqWiusUF5Pa+1rodBVb5miRx4jlhN0rmGgN4rP7piANZpxYL3O94D5Px11LjTmCY2QTojrDlhqMfZUGxfaGsGbwbs7PJIQ4Nla5jRz4KHWLHcBMW57MrT4PxXSFSGEh3nD4XXjt1HaZWxKHwyHXGObSJaDEEMEGEa20uWd2wj2R7UtYeWWBkzI+Sh4O16f/l/ZDSy+QcBblg7PwbAnLMG3GNVRWuGc7hCQ0A8uebyEkqTmEdxkK1syK3ZGlaS2E9ITDBguF1ddeb4S7hACmpv9KFh5agpVxWE688bUMcVHYvHlzuYL4VcNR8N+km6FP+mKZA5DjLIJil4PGBqce/5zGaH1d3Zfr69E+6HZUJmp0CE0kF/avcuwW13E8Fy2g6vJkXG8YcuQDauDRE7Ah/wC0DU2QpRcnOMaq1G26LQfuimzr1zBCeRyz55Jl2eHgXHLzoqv0uE+nRiE0NBROnjwpUwxzaRJQYtjZ0IBmeGIDWuyyw/eWI+TKUbCIvN7GRjQOqKATKZvLCYXCAsT97o/uIksqB8eQRkRcQY1Aaao6gaYi1AYzhDbuAKpS44H2nOMQ2qgdWPb/ALasw2C6sj84cr0z+SojUq2B9+s1hpUFOXDIVgxhKo2w0NASxklHWrjBWPKnELminu4RYhkh9lPYJ/Y7KJbS2/qi159bPzi7Et3XEzJKWto4SQbpaEii54Rjdsq4FD61eQmDaJ/9PuOKittaWbCBRhc2Wj8K+Hu3nJwcv3/35hTX0SssVVi5IfReoPvdd3zy8ccfh8zMTPpb1+CMzOzsms9Y3lhwkP5i3eKY4UDRUVTqFsG6+fbbb2HrVv9cwvj+Y8cDx1TxG0ArUTmHLxqNhu7Bl6o+D4YJdALqpxU4GaB3WGP4V72+kOsshrX5f58z1vNIbHeaDYpMyFxF44b3igYXP2T8uMdnroTB5paeafk4g7THoYW0XhpsnJc0GAYtQuKoweyStsAzZjVixAiYPXs21K9fn9KVgeN+mW9PFlZgLqXRHYpWIKIWFluD6R+BxhRFk2jQ+js2e6QQRx2kPr+ZttOntIb4e1+FUytnQf4v62i/svD9acVxYRGOOZkGv1gLKY18VL8JXB1qgr+sRfC//FPwU3GB56cUeL9r4i8jaxIn1jQ7/BuNG2L+B2K/HqFm2u600w5XHPmD1pHvvvsOvvnmG/jnP/8pc9yzdBvpxP34gLMp0Q2Nz/HT5DtoItS6/P0w/cSXVI6zgr9JHU3rCso+vuAzW1ew/5yfVmDju2HDBrj11ltlTsX8u34/Em18tlMzP4fvROdKoW/fvvDpp5/C2bNnITk5WeaWD07G6W5sKFNuULDxGvF6UVR8Ud5NZMeOHfSzlGeffRZmzZpFeRWBHUK0jH1R3k2lbutpw+CWIx/CEdtZuYWbhQsXwm233eb3eDeO265KvpMszJV5f53zvc2fPx9SU1OhX79+MsdLVZ8HwwQyF9XvDJkLB4pGly5dYM+ePTLn/DJs2DBq6MeMGQOffPKJzK0+r776Kh3ryy+/hOHDh8vc2icpKQm2bdsGMTExkJiYWOlkpJqAdTR16lQS94YNSwp3dUCrDztCUVElOz1IbT8PhrnQsBgyfrF9+3bIysqCO++8s04b9LLYuXMnNcxWqxViYyufFFQZjz32GP128sCBA/B///d/9POBuiIjI4P+CzusuyZNmsjcuiE31+2VwP8274EHHqD1moAdheLiYhg8eLDMcVPbz4NhAgEWQ4ZhGCboCbjZpAzDMAxzvmExZBiGYYIeFkOGYRgm6GExZBiGYYIeFkOGYRgm6GExZBiGYYIeFkOGYRgm6GExZBiGYYIeFkOGYRgm6GExZBiGYYIeFsMgBCM2+BM9gbk0wP8b9YsvvuBwSwxTAZecGGLUewyBczHQy2D2RJd/O66RJ4SSP2AU+1YhBpnyn3Xr1sGyZctg+vTpMgdfAhUsazAcdjW+H95OHEIhnRR8y1rrveGscBvcFvOx3DfGpALGEMRgvTUlThtGobvwWMuT74Cbw1vJkurTWl8PfmkyyRMOzJdRke0pRBWGnKopWCsv1u9L9VSaiVGd6Z62NxpH91hTsF7WpNwNOxtPgGSdNz4l/sfqkZGRFIGCYZiyYcswQLjRGAEf1m8CBpV/j+RyXcn4ef7SqVMn+Ouvv2QKKI7dM/WuhRZCuCimo6EBdDWmUBk25BgrUilblDQUehpTqWyCaMhxW8zH8mERJePvYXy/J0SnxAk1/3/g3028xSNaGIj26bhry5Be/8EYhx80uO0cAUfxezimG0wTS22AR39LdBhuMjWnevKlcUgUTIzuTOsYgHhO/ABary4Y5xDrBWNIYuDf/ybeLEvcYMgqjGpxzz33yByGYXwJODHEj1rp3T5br4/MdQeTxQYRI6VjLztea5Il7n3QYsCePlorpTl8+PA5kbrLQ20Mp0C9uriGkPrCFkh+5FMwXHaVLAUI7zYMkmcsh0YvboPQhldQXkhCU4gf/RqtKxiadYZ6dz4vU+Vz58kDkJT+Cy2jTh6ET+KbUr5eNJ6DwiIhPaUtfJfUCh6OiKf8MeY4siTRMlyf0JzWMdq9UTa2jXV62J/ShvJRYH1B1ygGmu3a1R10GMGAsU+c/NoTZb5f+rvwf8IKQ/4Z2xMmiAZbKdtWmA6z4vtT2bwzOz35XdPegklRXcgqV1ibMhLW5O2FXEexzKk+UUJYRx37lM7VPW0h/FyUSUFpq8tVhmRoK45VmkZCoGwuB/Q+tEjm1JyPzv5OgX5Lc9B6xlN/uKAVXRNejb8Rhh/9yHO8bEehEMZIWQoUc3Ds2LHw4osvyhyGYXwJKDFEKwVdnErvdoi5JTQLiZGlAHdHtvNELn8irjdtj7xY/3qyGLCnXzriOIIuorIClFZE4qS3QaXRgjYqAeJunUF5GJk+ZsBU0EbUFwk1xI97E8ydB4GzMM8dxd4HjRAy24k0mfKPHcUF0FDrbuTvMsXAvNhUca8qSBF50yLjab0yVsY381iX6HrV+lg/GJz3p59+kqnyybTl0d+mou73WU/ROj6PjqFJ1PEoi7POIjjtcEfUT9SGw07LMVie57VAa0KhEGyMNB+hDoXn619HwpHvtMrSqvPKqW/LtFd/FNf8xunvZarm4Dk2FBxwJ+qYRrooOGA9Tevhaj0JewNdyWj3GLfRaKy565dhLkUCSgyfi+sDlwnrQundtj84F14SQqdgddk9ZVfo6wuRiCBBRMFU8ocdWSq39hIeHk5LVTi95nVIe7Qr5Gx4BzTh7l573PCnIHPBJMrHpeCXryD6pilgP3tCbBPrsSpRIPXJraAo/Xfaz1/ynA6IUmtp/Z28LI/FiMv7edlwmS7Uk4/pvpl7af1uYVEWupxwVagJ/nUm07PPgON/wx1mb2eiUaNGNGZYHujufD/pVph+4ktKR2sNsLc4i6zy7xuPhyezvoYcRxGV+bIo8WYYm7ECshwFJL2fJo+Aqcc/J6uzNhhxbBlsLkyDrY3GwpWhifBS9lZZcvGD9XVHRBuYmb3FnVFN0NU6wNwcNqaOhk2pY+CpkxtJIEtTVHTu82MYJsDEsJk+xjPpApefG98PURrvJBG0NkpjVOlEg50tU7VHwW5342Q/m0V/EV1sCiRMmAeNZm6nxXTlTaAOcVuiamMEmDsOAJe9GCJ730Nu1uJje6jMX2KEJZrlsNP6ImHVKZNrFLdoZVyuM8CsmGTPPmviL4NmOr0sFdeoLv9xX66vB08Kq/zuY596rK4CIWa3hF8Oj55YB+0OvAlOl6uE5Y0W4AcNhsEzWRvhhN0d/f6OiLbkwlSeIW6Pf6s7GUUjrNyvG94LfxSdpM7OuIyVMDX66hIuwIsV9GTsbDwRkrAez/4mc6tHkegoovv3HvH8OohOZKzWCPulVe+LSzxDhmHOJaDE8KgtF36yZHisPFwqG7+xC4vIt6G90pAo12ofR94pODZ7pMcypGXGNe5CuxUMTa6E4sN/gkoXAhphkTktbnejP6CFMNgYBT8UF1C6W6gZ9tiKIFlaeWgJVsYBexGMyzrksQxxeeK0twOBEyjq1asnU17w3DjWOjXzC8iw57ozBX+LTkaxywF/CesQ6WtqQmmFxUlDySL5s/ikzKl9QlQaOC6Edmuhe8z3b2u26BQdhWifTtLFCk7U+W/OLnjt9HaZU30O23LgnTM/ib9nKd3b2AgyZQfFl5CQ6o+1MsyljMpsNgdMVzFOEwavxfeHNqHuySLIstw/4PmsTeSq+0FYhriObEkdC/dlrIC92Dg2nkBjWsi6/P2Q4yzybIegCCD+uErR1Zlw3xzIfHsyOAtzwdxpEMTe8igJH5Y1fNLtQlSwZu4ngUx66H80xohu1PAuQyDyujG0T0XgTyuW1GsiU243acsjv9NYE06OKf3TCXSL7ra6x+WuDjXBJ/Xdk202WnJhvBBBdJXihBvfsUXffV577TXo2LEj9O/fn6bbIzjpBYWw9FgrdkRwbBYbbGUmZ5a9ACYdXwN7pOu0tBsOBWtS5mqZcoPPqcehhTLlJicnh6zUUaNGwfLly2Vu+fg+XwRnqLYXlqry4i5duhRuvPFG6NWrF+zatUvmlg+OP3Y3NpQpN3i/OIt2fsIgmeMG3cK+14/vEk7Iat265OzZ8kCr2BeljrBO8ecivuBEm+2Fh2kdJzuNGzfO7zrCTgn+RENhj+jI3Ha05JABziT+9NNPISXFPVtYASeXRUREwMKFC0v85IZhgomAsgxxzGm8aBCOCQuxKjx4/Av6i73issaTsAE7c+aMTFUfFMecb94jC7E0WIbCiGWFf+8AlxA2f7G7XPBSTib0ytjjaeAfyE6HbUV54BA5E7MPwaOnj8oSN98X5cMvxYUy5eXmE/vBIkSxLFasWAHNmjWDu+66S+ZUDFrd/zm1neoV3XD3ZHxGQlhT9u7dS3+bNPF2BCri7qOfwFeik4N8ZzkCEzNWeeoJeeedd+hv48aN6W9dkpmZScJR16AwIf7WEbq2553eSR0WXJ+QuVKWeBkzZgzs3r1bprzgxBrsnKSmun82wzDBSEBZhkzd8+2335JVk5SU5LEOzyd43m3btkFMTAwkJibW+Brwf1VBCwob+roWKTzXxo0bYevWrTB8+HCZWzfMmDGDltqoI2T79u3QsmXLMmdV4/NITk6GadOm0U8wGCYYCSjLkKl7nn76acjIyIBXXnlF5pxffvjhBxLCrKysWmnksSHH388dPHhQ5tQNjz32GJ0L/2szxWqrK0aMGEFCWFt1hCLeqlUr2LLl3BmrO3fuhDZt2sCqVatYCJmghi1DhmEYJuhhy5BhGIYJelgMGYZhmKCHxZBhGIYJelgMGYZhmKCHxZBhGIYJelgMGYZhmKCHxZBhGIYJelgMGYZhmKCHxZBhGIYJelgMGYZhmKCHxZBhGIYJei6a/5vUN/7bsCNLKY6hgm9sPYxLp+C7z2mHBSZmrvIEqj3fGC/vCfWGPwkqGaMw/dl+FPapPGIGPgjh3W6j9ePvPAiWfTtpnWEYhql9Lrr/qBsF7kfLsRJiiGC0+0VJQ2Hw4SUyx7stRkePFuVrG46Eh45/Ad/KAKrnk6Sp74E61ARHXrpZ5vgHimLhnu0shgzDMHVIwLlJU3QRsCl1DEU3X5A4GLwx26sPqv0pRyEFqh1qbuXOFDwW25MikeO52sro+g/HdIVfmkyidUSv0sCr8f1LRHV/9913KS5gVXEWnRuOx9xxAKS+sAUaPvs11B/1ssytGLXBDNEDpkCjmdtJZH0JbXgFHQ/LIrrfLnMZhmGYiggoMUTrbmJ0Z+h/+D3okbYQfhBW3VQhTrXF8ry/oLOhAa3juTYVppFbFc/1btItlP/m6R2wseCgR/zQurzG2BDSbN5I+Xq9Xq5VjqFZZxKmkISmtOA6Lgphba+D9Keug8x540EblQCmdtfLkvJJfnQ5hKa0hrRHu8KZDQtBbQynfNy//uhX6XhpM7qBudMAMLbsRmUMwzBM+QSUGKL1NuPEerA4bVDkssPWgkNgUofI0toFz6W4S/FcuY5iWi92OeDzvL3Q3pBA6e7GVNhWmE7rChh8tVs3/0QG3ZsoWtbM/bTgOi4KOB7osluprOjAT6DShcqS8sHttdFJACoVFP65xTP2iFZh7vZPqBxcLjj91VsQ2qg9lTEMwzDlE1Bi2M2YQi5LdF3i8nHyCFlSO8RrTJDtKKB1PJdyHlwiNV4R+lpYhtNiupGL1qjWwXNZm9wFtYxKq/NYirgoE2Yq4/BzN8Kx1+6EBtM+pP00JrcVq09uBZG9R3mOV//uF0EX15DKGIZhmPIJKDG80XQZhKg00DXtLXJf4qzR2uS2iNZk5WlUajrX66e/p/PgkuMoklu5KXLaIV5rhq/y98EZh0Xm1i4oVM7iAjj0eC+yFnO/XSZLKsdRkANHZ40gyzP8KvekHOvxg3D6izke6xOXE+/+g8oYhmGY8gmo2aS+P4VQWJb7BzwvLDPfn08oTMhcBdsLD5Nl58tWIXjTT3wJN5tblThetqMQrj20iNbLOpfvzzJwbHFh4hBoK/J8K6hnz56wYMECiI6Ohnr16sncylEmuhybPZL+IjjW1/DJL2XKTfanMyHvh1WQ8vgaYfFFy1w3Shlafb4cXzgFLPt/pPVGL24TT9Xbx/H9WcbQoUNp8o/T6YTIyEjKYxiGYS7Cn1acL+K1JngirjdMylwtcy4NMjMzwWg0QkREhMxhGIZhAspNGiioQQWz42+CD87+KnMuDYYNG0ZCmJOTI3MYhmEYhC3DUryZMJAm1+CP878pSJO5lwZZWVkwbdo0eO+9kr9NZBiGCXZYDBmGYZigh92kDMMwTNDDYsgwDMMEPSyGDMMwTNDDYsgwDMMEPSyGDMMwTNDDYsgwDMMEPSyGDMMwTNDDYsgwDMMEPSyGDMMwTNDDYsgwDMMEPSyGAc7mzZshNzeXFn9QghVvSR0rcy4Mj8f1outoHhIrc84/eQsehMLpw6D4tp6Q/+9xMrd64DHweLjYW9V+wGS8PleYN8B0oOCMjYD81yfRfePfQAOvyTJlqEzVDDyWvX1TehZ4v5caGLauqzFFpi5edu7cSe3h2bNnZU7twGIY4DRp0gQWL14MLVu2lDmBwzP1roVX6veTqZJsLDgI+U4rHLP7J+J1hcpqB3XGKVDl+wRoVgEUPHW3u4GffT844zicVXlYJg0Cl14nU4GHOvMUaH87KFM1xOUSvR4bqHILZEbdMSdhgFw7l+XJd8i1Sx/stCsdeH87z507d6YF47L2799f5tYcFsMAJzQ0FKZOnQrHjh2TORWDAYpfyt4qU3VLu9AECFWX3VBi0OWuaW+RIF5I1MdPg6qgCMDhkDnCApg9CUK++hHM4/8DYf/3NhQP6yFLyke/bDNtH/L1zzInOHDGR9F942Ka8qbMDRyMLy4F3aZaCrWGHaesHFBZxDuLwliHtNHHy7VzaRJSMqj3pQ62Wcqy15otcytmz549sG/fvlqNyxpQYoi9AuwphKlDYHujcfBLk0mQrPPebENdJOxsPAHWpNwtLlx07yWhKi3lYc9ibsJAmeumbWg87Gp8P5XdHtFG5rpdBr69EIykr6CUzUsYROebEn21LAG6tolRnel4z9brA3HaMFkCFDkfr/vrhveCXqWRuW4wwvypU6egRYsWMuf8o1w33hPWpS+9wxpRPWGdtxcipxCjMcLalJFUhttgvRuEAOJxGumioLuxIa3jgvWGYBgsJQ+39UV5hljmW6/ovmmhj6PniHU4PqqTLHFjMpngzJkz9LfKiN6+OtdrGaKlo/v+L1pXiTLDXG8AZ0ejeLdbcO4Ush59XrNyQcuyaEw/sjQL/jVafFX+fVbWa9tB3vyptJ/LbJC5btAiw3wUaldoiMytGGd8tGc/y303ylwBWsJPj6Rz5b86ocTx0CWI51Cs5NLXrrJ5OxEKuH/xkG60T+HDt8hcN3g8Z/0oqof8NyYD6LSyxOd+xeJo4n3HCp64k64d6xzL7JenyhI3Rffe4DkXbofYrmlNebjgui/4PPA+saz083AZ9ZA/a7y77Im7ZK4bxXuA3gRcaspjsT1hU+oYet+xHULwe8J3P1IT6vlGcEHwG1DWlXzfdgnbmrLaF2wzfb8d3zLcB68Bj3V/dGeZ6wa/Z/ze8dsu3R7cHN6K9indxiGz6vejspGR7ajtVcBvc+3atbBixQqZc3ERkJbh6pS7oMehhdA9bSF8Jl0GHzQYBosSh5K1gdHntzYaC5fr61HZ2oYjYcTRj6hnMff0Tk8DjIL2av3+0DltPrQ78CYMC78cbjI1p7LK+Dh5BMw6tQ1GH/sMBptbQIQ6lF6y78TLhj23tuJcG/IPwAB5vJfr3wD7rafh2kOL4PZjy2CH+AB80ev1cs1/unfvDjpd7bioHo3tAfXES411hNeIH1m42n1Ng80t4aGYrlRPHQ7MpY8EwXqcKD6gEUeXUdlL4h7xPi1OGx0nzXYGthame3p1S2QwZHw+XdIWUJkveH6s12vS3qb6ayk+4MnRXWQpwLIGw+G+jBXwdNZGGBvVscSHFh9ffk+6PNCaQYtOuzsdDK8vl7kAIet/okaXGlGfxhob0eJbe0DYjHfANH0BaNKOC1G5SZaWT/Ht15IrFs+n2/4nFP7fbZW6Fm1XtQRb3yvBfP8bYJ7wH9EQC+tVgEJT+Mhwz/EcyXGQ/5+JVFYRzphwIXhCvIVBg/tpjnl72GQJi3s2P/AmhL6ztsTxXOFGcCbEgHnyHNDu3AOWiQNp7BIFCgUD70MRHWVsDvd3NI53n0fUUeFDQhC17gYYj1fwzEjRwVgFISu+hcJpt9IxbF1agK1HGzBPnE3XgcdymY20D1Lw+B1gnjoXwh5bDJYHBlOeUhcorlhHul37wXpdeyrTbfuDzh/6/gZK+4LPI+y5/5X5PApeHANhz7xPZfrV35UYp8V8ddZZeldqagWj6G0qTIP+h9+DHqIdezfJ3Wk45SikbyXHUeT5bnBB0JuirCv5gw8voTR+d58LsfNtX/qENaYyFFbfbwfFCr8dbK++ShkFAw6/T8danOP1anQ0JJFx0F60i/htY9tqEh19BNsD9PrgPr8WHafzalRuqcB25JPcP6lMLf5dHupugxH8RrVa7/fkLyisKOS+bYE/HDx4EEaPHk3tZG0QkGKID9zuckKesxg6HZxHea319amHgr0YFEuzaMgHCpFCnjq50dNjwn2wsUaGRbSGezOW07GcopW4L2Ml3Gi+jMoqY0LmKjggxO2P4pPQJ30xnHUWwZXiBXo+axNMP/EltjmwpfCQeMF20fbXm5rCU3G9qRe4QVwHWlC+jfmIESMgJiaGzHt/yMjIgM8//xx2794tc2rGjabL4Jmsb2gdXZf/zt4GrUPr00c7OqoD3HbkI089vXpqO22H9bjozC4STqx3vJ/Sll5V6BvWFCaKerW6HFR/D59YC31FvSlgnWfa80hEd1qOgkrlNcv2798PUVFRkJ+fL3Oqj/6TraJxnQ3OxBhhJYyjhhjBhjDkix2Q/9JYyH9tIti6XQ7gh1UWsvxbcDRNIsEoHng1uHRCGKQ4lAU2wNa+HcDwysdCxZwkYIpbzt6hKVmn1n6d6HiO5snCVFGBy1BxZ8rWpz2EvreeRAgJ+WIn/SUcTtB9+6fYyA7aP9NBlWfxiABZxthREGUh634C0Ig3t6BIiMkSEgwsx7+44HbO2HC6HrwuvD68TmdqfWHpJfocbwWoj2aTS9k4cynl4f06E4T1N18I65zJJHT2K7wWoOmRhXQN6lO5dHzE3vEyIboJdAysI3SHhv7vayqrCHweBc+MKvN56EUZPnO0glV5hW4Xeh2AojfE3IraJGwTfD1Z1QHbF/z+fNuXIUK0FHy/HbUQLvx2sL2amb3FM1ShtIvIqIh2cJUhGX4VQoTfNrataFxEaQwwSlh8eGwUKWzT8Lyp0nKcc/p7eCtxMCxOvBmWnv0NfrJkUD6C32jfvn1hyJAhMqdy0OhBYZ16/HNoJc7/dNy1sqRy3nnnHejSpQu1kz179pS51ScgxbCqoCjNOLEeDtvOklAqPRzELhre2qTIVbb7pKYve2kSExPhzjvvhFatWsmcugVFsDTNQmLgfdGjjRYfSG2BQhgooNUY9tS74Ex2925t3VuDZZKwSnysRX+wTL8V7K1Luvb8QeU4t87JpefTCagSdiGsZVGb41/Vvbbq7lcN8HmUZ5mjoOpXbgfV2QJhMQ4vYZ3WJt2MKXCDEDDftqgmVLd9Kbe9kpZeafA8ihVYFiisw44shRRdBGxMHQ09jFV/78sCDY/XT393jku2IsaNGwfbtm2DXr160az7mnLRiGG6LYd6Puh+w54ELtjrQXAa/1cF+4QV+Bn8Q1htaOYj6/L3w+Kkm0ErHi4+5MVJQ+Fd6SpAC/KuyLbU68GxLhz/qozdwkpEHzqODeKr2dnQAO6N7EBlaMmgiwJdu8r1+b6I1RkzXL16Ndhs3t5cTfix6BjVE4Lu0X/EXiN6dcfgtOjBfp1/EN5OHEL1hPeljOXdEn45vZwdDs6FIUeWkOXoS4HoaXYSvU/czx/QDbQgYTCEqDR0nvkJgzzPozJwPKLaY4alwJ9JkOgI0XPW8z53a882otEGME98HQzzVoMm/aQsqRi0cnRbfqP90CVbGWiNaNJOQNGovjSGVTyiF7kXEe2vB0GdeRpC1u70WGRkoVmKqbw8tD/tg6J7roeiu/pQ2nr9lfQXcRlCwNZVdKrE/aK70mUKrbZFhNYziqvmr8N0v3htpqlzQbP3iNyibHTf/UXWIrpjlXvSba/Y64HnQEvRcv8gei7oWlburyLwedB5ynge6J4NWb8Lwp58F/SfbQNr/5Jj0+WB321OTo7f3++I8CvIg4TDM3cc/ficzia2DV1E+1GeyCVozXLNDbYvKES+7csDwpqqiDTrGZgqvmU8Bw7tYLul8Fnun7BNWJH4bSvH2yHOgRbtyty/RPluunalDMUKvULoJj1uzydv2W9Fx2FabDd5xJqNGaKooit4ZZ57LN8fGjZsCO+//z7s2uX2zimMGTMGsrP9m4jjy0Ujhu/l/AJxmjDY0Wg8me84aKxMgLktvDWZ+pj/7/r96MVBdhVl0EuFZThQnCJMfcxDfis6QaKJbgd8SY4Iq7Iy0M9fKAQAxRPdCwuFgCTpwqlsUc4uMvFxLBOvAxdf0JzH8b8BA8qfUl1TlMF5vB9lgF75XdFbZ36kesK8bY3ugxPihS6W7sqPcn+nSTNYT3hffUzusQgUL9wG81ck33mO6H1feIQ6E0rdKxNocB2fE06uwb/KJIBDtjNgFB/Uj40n0nnwnNhh8QesN41GA/36lf1Tjqpg7dMe8uZNIXcdjmmpj7hFT/v3MRJJLMOxM0dD73iI8tsz3NcydSiteyZuOJ00Hob7+fsbRN13u8HeMoXcsdbe7dzuQQG67kI27BKNdGc6h7JUhuageK/VKmHdXkHbF9/ibfi0vx8Swns93W/R6H6g/S1NllQPvFaHuHaqQ3Euf37nh/frbBBL16DcU2W/q8TzoOvW3rYxuVdxIo0r2v29KWOaRXdfRwvdM3ZyEPE86DxlPA/75Q0911B88zV+/ywDf9qkFu/G2LH+/X73e9EG4dgdtjs436G06P1SlEkdUCzH78UX7PR/1XAU5SvfDrYviG/7UtlvBo+L42BnFs+BP9dAgVPYbjkC14jvU/l2cVGGQFbn7aUJNMq14aKAExqVa8Dzby3wdjbwG23bti1ceaW3I1YZyvHxpybYPuNPsmoKPquQkBAYOrRqvz9Vmc3mWvShMLUN9nBiYy/cD9cZhnGTmZkJy5Yto586MReeX375BWbOnAlLly6VOV7wR/loIX788ccyp3IuGsswWCkqKoLZs2dDUlKSzGEY5nwzbNgwMBqNsHXrVpnDXEjQXZ2cnHzO/0KD7eSMGTNoHV22VYEtwwCnU6dOsGbNGjAYDBAe7nYRMQxzfsnKyoJp06bBe++9J3OYCwX+d2wohl999RV1UnxR/nMSnNH6ww8/0Lq/sBgyDMMwQQ+7SRmGYZigh8WQYRiGCXpYDBmGYZigh8WQYRiGCXpYDBmGYZigh8WQYRiGCXpYDBmGYZigh8WQYRiGCXpYDBmGYZigh8WQYRiGCXo0er3+abkecGCIponRnSl4b6CAoV/snZuDyuYAy/RhoE4/6Y7xVgkY5gbD52gOZvq1fV2AIXPy50wGW882ELL+J5nrBePGFY3pB/ovfqCYdecTDIfkTKkHmsP+xRCsC5xxERQhvfjW7uBsnAC6HXtkCRNoKM8KIyMV3XEtONo15efF1Ai2DKuDzQ6q03kAxTYhbDmUhSLpu1gevJnyFQyvL6eApv4Ef60rMKArBWP9x1sypySGuavAPGE2xYMLRrCTgnUT9vhimcOcLzBeZGXxDX1RFRaDKreA/qrPFoL6+GlZwjDVg8WwGtDHl1soRENYTz4WlBLBW7/6O7C3SJa5DMPUFdgpVZ0tAHAEZweOqT0CKmqFSR0Cz9brA9eFNZE5AMty/4DnszZBZ0MDihyNEdwRjHz/2unt4HA54eX6N0A/UzPKR7qkLQCL00brGPVdicCO9D60CE45hJAJevbsCatXr6aYgfXqeaOaVwe0BlEIFQqeHQX6jzaD9s9DFJXb2SCO8k0PzycLTQEjnbuMeplyCyqh04LlvhspyrcCWixoveS/PglC568hKxPdRcW3X0uWJ5I3dwqAxtvHUY5HbqXn76V17Z/pnu3RzVQ8rCdFcFfAyO9hz39ArkuMIk6Cr3JH6g75+mfQL9tM6+VB193xMpnyXjdS+vrCnnkf1Bmn6FzWvh3AGR8tS8S1TxDXLk6N96v95QDYurSQJSXLXHp3hG7EPOkNALtDpsrGdlVLipqugMc2zFstU+668q3TysBnr8rJB1ekidJKHaGlU/jwLRD23BLKVyLj67b9IU6qoYjrSr1iY26+/3Wwt2kElnE3gfnBeXQfjqaJYHlgCJimLQCXQQ+FU4eAM1m+q+K5hGz8pdLngVYXhGjBFRpCaYwgH/bPRbSO9afKt4Azxh0ezFMmLitv3lTv9QlM090ehYJnRoLx1U9BfTSL7hHdlcb/YDq7wueRP3MsuKLcdYTgu0mu+1cnyBwvVGY2Vut+GaY6BJRleL2pKQlhv/T3oN2BN+HejM9kCcCDMVeDzeWADgfnwsDD/4Oh4S2hRYg7AnwnQxJ0TXsL2hyYA3ccLRnZ+PaINnB/5mrab8iRJeDEFlSyefNmsNlssG/fPplTe6izcz0fPjaGKILYeJQGhdA8eQ41NPqV22WuEKh+nahhDF2yEcwTXwfjLHFf/ozjiW1we2xMdFt+l5nieoQYYZ4KLVof7C0bUiMd+t562g8FQBFuBbxuLEP3qf2yyoMMO5omkcjh+Xyv25ngFjrTlDdJzNTHssHavxPlISiExhc+AIMQelWRFZxJ7uvAxhWF0PjKJ2B4cxWVuSLN7gZcHFu/dJP7eJmnwd4qhfapCOugqz37GF/+COyXN5Ql1QeFMOy5/4H+061URyhcFWG7shmoj5+ha8Dnr7LZqfHX/H0MNMdOeToF9g7NwCWEDAUF6wqFAesI6xA9EyjsfiGOH7r4KxI6RfgUUJDoHXzkbXDKdxbfC1WxjfLxnVDlFICte2tQ5RXS9raO7s6no0kCaPYeoWdZ0fNAIcbvAesby0I//IbyFdc9vpf4jeA6LkiN7pdhqkhAieGoyPawuSANMuy5JFr5DqssAWitrw9x2jDY1fh+WJ1yF5jVehhodlsKT53cCNsbjYOvG94Lec5ij1UYozHC1oJDsK0wHezCgjxoPQNnHBYqU4iJiYFu3brJVC2i9vaoKwKtkrw3JoH1hitBt323zBVtV48rSIR0W34jEdLsO0YCWxka0TvPm/uA2zJdvk3mlo/tug5klei+/ZPOg1ajKs9CDZ4CWolYhhacr6VQHqHvrYOCp+4my8dlDPVct637FRD633XUyGKfBMXN3sIrXqHvb6AJNNqf94tr/xYcqfVliSz7+yhofzsIpqlzQXUmD2y92lIjWzyiF+TNf5DE1ta9jdyjfLDRVvYp/L/hZIXXFLw+tIyoHrGOKnj+KJRkBYvrxWugehL3Yb8ilYQ+9P31UHRXH9rWKt4D3bfu98LWqTlo0o5THWEdhn6wscRzqgjsbOm+/4ssP3y+vmB90ji4EDzq9AjwvTDMFpaxyMd3wjhrGQk4ot21H6z43gjIghYii8+zoueBnoKQdT+B5kAmbavb9CvlV0RN7pdhqkrAjRkWC+uvquBs0xkn1sNh21kSSnS3KlTneLWBs36UxzVYEeiew1lw1r5XQv7MMeSeUlDZqz4OYpz5IQmGKyIM8l++T+ZWgj8WZxXAxlO/9BvQCPG03D8QnIkxskTck2hc/YGsocrwcbdeVKBQVtCpICtLWtEq7Kh87+0kVeYC9gs/O2oqa9nPSvedEHyJ02zwXlNlz8Pq7qRWidq4X4bxg4BqTX62ZMJ1piagV2lgWkw3+ChZ9Nol6bYcyLTn0XggukNxmZm9hcoej+sFXxXsI7fqP058CYPNblfKaUchuV7RqtSq1JCoDYcojfh4fTh16hR8++23MlULqNVgmSgEQIgRuo8qo/i2nsJa+op67tq/DpN7CkEryNEoHuztmohWSRhvKfXAGet2b6HbEF1I6GKl6eUS7DVb+3UCw9zV1NtHMcbxr4rQ7twjLJUQsHVtRdeO7kiXKbTEuGZVKXzoFrJyjf/6EAxvfwHFt/agfO2ufWAZ0889piTuqfDREcLq+YPKEGe0mf6iVVR88zVkIVaEbvufNJtQ/9Emj3vN8OZKWVo+aBn57qO45Wod0ZBTR0DUq7NBrHv8VYB1q/tOWGnCkkQ3pHINHs+A6JugCxWfif5D0anYn0HZ+NfRLIneBXz2+JMCNc5q9gNyYYo6t/ZuKx6ERuaWD74XhdNuJasZ34nCR4ZDyPpd7rLf0kC/Yju9u/pV31EeUtHz0Ih323pTF3AmxdJ1lHZ3YifJhtfmY6XX5H5XrFgBOTk50LdvX5nDMBUTUBNosL96tTEF5icMgoePr4Vfi47D+OhONIEGy9qExsPbiUMgVKWFHEcR3JexAvZas2nyzL/q9SXBW3L2V3gpeysdDwkTVuInDUZAki4cdliOwjixj+8Noxju2bOnxq5SnERBCCtL991uCH13vTst8JRJaHxE/rwBf9dn69yCpomjO0y/wivMLtHrRrHDhgAbx7Bn3qOGEhun4pu7C/HT03hk8fBenskeONnC3jqVrgMnGuCEAwQbLt9JMohnMo9ogPL/dS+NWeFEENM/F4vW0+mZQKOIBU4EQpQJIeVh63Y5FN3ZhywF/F2l8aWPZInblVY0opeoBBWErP3Bc79oSRc+fCu4IsPIstV/us0zXR7rD92QNPGkFPYOTaF44NUe6xNde5X+fEW8TAVP3u3ZB11wOCZVVh2hq7qy+/W9PuyQ4KQZnGCCdYv1gC5vFGDs9ODYonIfxUO6ic5LR6oLxHdyFXZ8Cl4Y7al7BWdsBBQ+eRe4hKAZX/nY7XasBPrZQriR1tHVHfbs+/QeITjhhcbjyqB4SFfqXOE7gS5O5V1SwPvG8T/fD6qi54Hji9hRwvcNnzGO/ypQx+558Q5KN6hy39W5X+Spp56CBx54APbu3Vs3wyDMJUdAiSHDMLUPimF5vy2tNtiBemV8uUJ6oenduzcsWLAAdu/eDUOGDJG5DFM+LIYMc4lTm2Loaz2jax9nlwYaq1atgl69eoHD4YDk5GTIz8+XJQxTPhfpDASGYS4UOOMVZ6YGohAqpKenw7PPPstCyPgNW4YMwzBM0MOWIcMwDBP0sBgyDMMwQQ+LIcMwDBP0sBgyDMMwQQ+LIcMwDBP0sBgyDMMwQQ+LIcMwDBP0sBgyDMMwQQ+LIcMwDBP0sBgylYLRKwpn3C5TDBM4FM4YQZFQGKamXBJiuDLlTvityWRaagOMAYjhaTCcDP61TBlK+SgKuFwsWMYPoDh6ZZE/+365Vjn2Ds08wWaZ6oMhkextGsnUpYGjaSIU3eWO03ghcCbEiDptLFM1A8NZ2ds3pf/YHL97Jri4JMRw8OEl0PvQIkiznZE5NQMDlNJfGVtOiatXGfgRKTH/SoMf1/kWUvsVqRRAtjQokOpDJ2SqcjBWYqCG6rmYsN7QiQLjXgiwoVc6dbWJZcJACF36jUydf/C9VGJ51phiGy0YW5QJPthNWg4Y8NWDwylXLh4wOKwm7bhMlcTW8TII2fSrTDHnA1doCKizcmTq0sEVqqOI/pcK+IxUFqu4MY5fEGwEVNSKOyPawvioTtDj0EJKx2iMMDG6M0W6fzyuF3QxNIAkbThFtHeCC546uRFW5v3l2XZR0lCyEkuTm5tLf8PDw+lvdUHLztq3A0VlB4xOLj6YkM93QsjGnyH/1QlyKy8YrRv3wWjxviiR7tENW/DsKHCZDLIEwPjyMtAcyKBo9kWjrqdo8Qq+Uc/RlYuRwcP+uQjUp9z3p4AR6wun3QrGVz45J8yO9boOUHxLdzBPnE1ptGTx/BiBXZ19Flw6LbgiwsD06DtiYxtFbXc2iDsn4rujWRIUTh8mU+Iy00+CYfZn4GhYH4qH9fBEOqeOhLgHvPaK7hfvp2h0P3A0TpAl3rL8WePonhTwXMZ/fUDreXOnlFlHSv14sNnBPHmOTJSPvXUqWB7wBoMN+fpn0C/b7I7jd20793MXqI+Ia5i9AhzJce77jRfvhFpch7xf7U/7wPDW57QtaDVQKI4Z+vFmr6Uu8vLmTPYcD/cz3/86uVEt424C84PzSGTQDYnXY5q2gDbDd8l2VUtax31CP9wIuq1/uJ9jTDi4DHoqwuj0pkcWnlsPEqWe8meOBVeUidaR0A+/AZ3sKJVXtwr4LiEhG3bRXyR/1njQ7DkM9k7NKR2yZgfoV39X7v0ieO3GVz/1eGIogr44l+fbQWGS+ynPw/e7Cn1/A+i2/UHrSMHjd4AzuZ5MyX1E3buM4v3712jqmCiEPf0eqDP98/wwlzYXlWUYrzVDx4PzoM2BOXDQehquNzWVJRWDIlhTIVRQFdmEkL1NH6v6dB7Y2zWmjxjTKHIoGriuNBz4kSrr+NHieulAq8r2KDZFt/eiPEezBuLpqMA0fYGn3Bd11lnKKy2EiGVsfwC9rsx4czhuFfLVDzLlxhVupGM5RWOKDZv2z3RwJETTfeE1mR6eL7f0Yrl/EJgnuK+L9hWWaNE9N1CZy6iHsMcXU30YZy6lvyiECso+vveLOOtFespC310H9iubkThq9mV4zoX74Lk8iDrS/rzfs5+CUj/KonJW3uezdW8NlsmDSTSV/bDhRVAI9Z9t8+Q746PBMv4mKqP7ffZ/Je7XWT+SypCiEb3BmVq/hMvaIoTfOOtjz/F0O/aAo3kyuVHxGRT370TbFd3eG1RnC0gYcR97uyYl9im+tQdth+g/3uIpw84NotQDejrwuSrlCHZyVKLDo+ThfRcJYfdQwfuH0LvkI4SIK0wP6jP5tH3YY4vo+8BnX979+oPnexPvur25+C4EyneF35QvrvAwIe5mz3nwvcFgxNa+V7o3EKKqlIWs+R4cTRLd+UzQc1GJocVpI4sQufnIhzApczWtn090W3/3iozFPbZYE7AHr6A6k+fpAetXbicLCMchrddfSQ2uvzgbxYNGNHznIHrnKOa6H/+WGW5U+e4euSrPQsLiDy5DCOTNf5B68bhgg+eMCqMyzbFT9BfRHD4p19yUd7+Ib5lu+24SIrS47B2aes5FFpA4l2IBYR3hpAeyOEvVUeEjw8kaoesTnYPKwMkYhLAiS4OuM83+DJlyp7EOELxfxboofb8Ijd36jNHitTvrRUDhP27z1J+tayvRGTFTOT4fx+WptI5eCM3fx9zrYh+0anz38b0v7S8H5Jp/OEUnqMSYMt63eEcUKnz/5LtUGpXNAZq/DtO6OjuXOi/YqarofiujKt+bS6+lDoAH2QdSOgcqH1c1ijbDKAScGIZrpJtHLJ0MSbQeLDiaJLjHKwTYABhf/FD0bGeTpVHw4hjq8VYGTo5BIQxdUrLHjKCFYpi/umQDWE1UVru39y2XsOfdrkt/8b3f8lDlFJAwlj6XSjaMVEd47qfeLVFH6MJFgTLNWOTe3ncMuBxIjFGcvfrsAYXP14WLabW4tspA9y5uZ5jn7bjhtatzLSQUvveE94ng83GI54hWjuZApmeCCu6jeCE8i3g/qgtGrPe4sxGdtkQ9VfT+Ke+Sv1R0v4jSsahKp68sVHYnOGMjZEqAz9LlEu+Ct4PGMGURUGKY5xSNhHh7w9QhcEdEW3i2Xh9ZUjMOHz4M6ellWEq1jEr0rMm6EI1KWdCYU2lCRM9erSbrpvj2az1Wm2XSYLBKV5nmYCaoTueBS+vzuMRHTmM6pRpunByj++5P0QDIDB8clzcETRVmkVYEXg+6yXzHm/xC3i8uvvdbHpojWWDrdBmdqzRoIWId0TXgsJJPHeHEDpwFjOKBrkVXSMlnYhd1gT8vQQtFAYUHZxIX3el+79Dqsg64itaxQbXe1IWeLY7n0rjgD3vdZRWA58HtUHh80exOB8u9N5T7rqC1aW/dUDxLIRhyggrug2LhuMztKqwSDid1PqjuJeqMU2R5o9sZLSfLmH4eC1epW6T0+4fbV/Vdquh+0Zq0XyUsRdEBsEz2jtdWB1WOuE6zARwp9ejbKB7eiyxAxVqtLi1atICcnBz6y1ya+LSuF55VeXtgTMZy+K7ROJoQc2P6e7KkYvD3hd+kjoZGuihafzNhIBjUXveR2qcBqEuMzy8BnWj4FNecL2QZCKsD89H1pIDjZHnzptAkDN36nzyTF0K+2AGOpkm0veXBm8k9W8L9o/G6s3yxXt+xzOn7aKFgD78qM/9wkgJd76sTaHzJ99px4gGO+eQ/dw/l44LbV4Zyv3lzHyhxv+VBFvJrn9K5lPPgQmVC6LCOCp4ZBXnzp5aoI+OsT0i88Fy27lfQ+G5l4GQd08PzaBwJz1Hw8n2g2+y+PvOUubSe98YkKB7aDcyT5oDue/fkrYoouqvPOeNqCI3N/p5Gx1PuCQVIIfTtz2kCle85cB/Tg/PAcl9/zz7l/ZSnNMYXPgDN30fddS/2Q1CgcYyz4OmRkP/8PaIC1GQNUpmsW9y29PuHglXVd6mi+8WJXtYbOkLhg7eAdtc+v6x4vG88Bk6iwQXXcZITdorCHlsMlunDyLXuSI2HsBnvkMu2JuzZs4f+Pv/88/SXufQIqNmkwQY2BjhbE91HtQGOJxU+OoKEqjQ4AxFncZbVMJ8vavt+Ax5hmeT/ezxNQrmUQI8ETia6kO/ShSAzMxOWLVsGU6dOlTnMpQSL4QUk2MQh6MSQuWTAn2dZrVaIjS37f3RiLn5YDBmGYZigJ6DGDBmGYRjmQsBiyDAMwwQ9LIYMwzBM0MNiyDAMwwQ9LIYMwzBM0MNiyDAMwwQ9LIYMwzBM0MNiyDAMwwQ9LIYMwzBM0MNiyDAMwwQ9LIYMU8cUzhhBkUwYhglcLhoxvDOiLYVnwqV5SN39Z7ldjSl0jj5hjSmNoaBKh4S60GCsQwxZg/iGwjnfFD50CzX0wY4STuh8PwsMp+VPCCcKtfX6JLC3akjb23q1lSUMwyhcNGK45Oyv0ObAHHgpe6vMqVtuj2gj1wIPdVaOXLuwYJR0l7bsuIrBhBLBXX00S+aUxPjiUjBPniNT5x/V6VKx/KoQh5BhgoWAFMNHYruTdba90TiKel8ZKboI2JQ6hvZZkDi4RPB3tCJ3Np5AZSMjS0aaR8HDfCwvy9rUq85t6CdHd4G1KSNhV+P7oXdYI1GB7rOh9fhp8u2UH6810V+Nyl29uM2yBsPhlyaTYF7CIMrzBQOHPv744zJVOeqTXjHEQKgYiFUBo5ljvDm0UqzXdZC5woKcNwXAR7gwcrxv9HiMg4j75M8aL07gvm4M1osWBR4Hy4ruuZ5iJqL1Q1ZQuNET9BcXCq4qwG3wOJhX8Nw9FNevMvBcGEE+f+YYcilaxvaXJUJ046OFNTzIfY5hPej4CmgdOetHQcG/RkP+G5NLRFLHbek6RH1gxHkP4nowoC0eDwMXK8fD68fj4X5UNvt+T13gNhiAFoMI0z5mA+VXBh5HWXxBK823rES5OGfBU3dTHt433r8HLBP3imWlr4GeobhXfGa+ZRi9H8R7gp0o9dlCilrPMExJAk4MW+jjyCWKmIQQDjG3pPWKeCNhAERr3B//1YZkuCI0ntaR9xvcCqEqdwM5PeYa+oug0M2I7UHrWD4l5mpaV/gi/29oGhIjU27QVTouqhMk6cJBK4Tutfgb4TpTEypL1UVCM7E95s+sfz39TdKGU9l4sQ/eF4piN2MKLb4kJiZC//7exr8yMDo8WiKIacqb9FfBMvVmiliOYKOuCKD6RI5oVKNoHXG0bAi6H/+mdQz862jkrjNsRC3jb6J1xKXXQfGt3WnddnUrsA4qWU9lUTj9Vk9jjJHti4e5RbIyrAOuAleUmQTN3qm5R0TxePY2brc1CrPl4VtpnVCpoHjgVeCMCQdXiBaK+3WibBIvsS1dh6iP4pu9zx6vx5ngFhiKsSiOr+AyhXo6EXgMW48raB3vm44hzof7WMaJOvIR3hrj8kZSs3VtRVY3gvdtuX8greP58NngvRLiWhTQ9UnPUNwrPrOCx7zuU+wsmf7xFkWqN7y+HLS702UJwzAKARXPEEUCLayOB+eB3eWUuSVBofzRcgz2WrNlTknQwhsW0Rqez9pEabTGuqW9DQVOK6UVErRmYUUOgsGHl4BvBeCY4XxhvaFL9uuG98KAI/+DWfX7wfQTX4LFaZNbuVmZciccteXCpMzVZGHiPnh9KJq4bZrtDGwvPEzH6ZO+WO4F8E3qaOh9aJFM1R62zi1EIxoN+hXbKW1v3xQcjRNA/+lWcDRNFKLWA4wzl1JZ3psPgHnSG7RP0b3Xg3ni65SPeMqEtVZ093Vgmv4WqPIKySIBS7EnOC9aUarcghLBel3hYcKquQtM02R0d9Fe581/0CPeOGaF1qSCko/nsrdIBsPCtZQuGnU9aPYdBfXxM2DteyUY3lojDi7EVeyLAYJND8+n7dDiDdnwM92jMzYcLBMHgvHVT4WomqDwwZshdOkm0ErRV0DrzjxhtkyJtLBEzQ/OI7GzXtsOzA+IDobNTnWHAo0CUhq0vkLnrykhLHhveG5fSx1R6lG5V19cZiMUTh0CxtkrqI5Lg9aqtU972tfywBCwN2/gcbn61j9aiuYJ4vjyZc5/ZTyEPfM/KmcYpnICyjJM1bktl/KEsDxQANGlioL0cXLJCR0bCw7C1tSxsDhRNIzSQkQy7XkQqwmDDUKo/iEsxrI8eUUuu8cNqvBYbE+PS7aRvF4kx+FtALcWHJJrbqszThtG2ytLlLRiaxtnchxY+3f2uN0sEwZ4XGyaQyfInYhgA4xWAoL7oOtN2QcXX3cq4mmkhRBWhkuv9RybqEJXS7vniFwT15t+gq4LrVl7h6YkqHhtKDhombkMetpOZXOA5q/DtK7OziVhQDFSH80my85y341uy8rnMaosJTtGmEZritatdhJCWvcRJ5dR73afCiGlOqolUCRdJmNJIRQWoOIKRSFUcEaGiXsr5xk4xTfjU9eqnHx6FgzD+EdAieFJRwGJT1nCVB44LvdR8nC4Pv2/ZJkNO+K2fBQePr4WOhycC6MzPoPPU+6GCLV3tl/XtLfIYpt7Zif8KkSqNLjvUB83LbpI0f059MgHdC60/CoDBRWtR9xeWdodKOnarC3UJ86QhYRWhLIY3lzpLrQ7QHW2gAQCLSDDwi8oG/dBfPfBpbqo7E5hoUXIlAAfpo8LUJlsUuF5hBjbhFWLoqbKKQDd9t0l9sFF5YcwowWF24a+v4HEVMFlKDkOjWlVYUlrrjRohdk6Ngfz/W/QMWsDdG3qtvwGpkcXyhy35Zv/0lgI+XwHnSfk659liahKIfyg83ZUSsxclWObCq5Ik3uskGEYvwgoNym2m7dFXEHWlwLOHsWZpOiS9LXEkAmZq8gNidaWL8ty/yA3KbordzQaL3PdtBfC6BCWp+IOVciyF5Aw+rpJkW8b3QdmtR66pC2ATqFJMCdhAOUrbC1MJzfpFmF99ji00OPG7WhI8rhJX6nfD/qamso9vPso5Obmwu+//w7dunWTOdUHLRfwGUsyzPaOETkbxELRHdeCMyEGTA/NozyE3IM3dJQpsXuxjcYiS7v3lGn8ilsUrS57x8toHcGGW79sM+TPHEtuSoXQD7+hcc6KUM6loCqygmnqXFqn3+iVGp9TrqksdyVS0fEs9w8Ce1v3GCSi/eUAGOatJpck7qeMwzrjIqD49mvJTYoChQKjgHWknLe0pajKLQTjyx+RGOFkG1+UOnK0SKafpvgS9vhi2gfdwL6uZATv19EkESyTB5OViqhP5Xrc1oo7VQE9AcYXP5SpiklPT4eIiAhYuHAhTJ8+XeYyTHARUJYhqvKys7/Ddxa3uwwFakXeX7ReEa+dco+R5TutcOexj2kdwXG7j8TxEHS9Tj3+OQkh8pMQrD+KT9D6aYcFRhxbRuul2WE5KtcAtgkRO2xzuwDX5e+H9WLxh3+eXA8HrKfBWY7P8Pjx47B2rXusrKYY3vocwFG2m1l9LJsaVN/ZqIh++TZQZ5ySKf8JXfI16L4/9/kYZ31MYoFo0o5XKoSl0f52kH6OoGB87VPQHMyUKf/AcUISC2GV4rX4Hs/w9hfusTQsO5MHhgWizirBsPgrUGeepn30n22TudWnhPXsA1rDhkVf0TNU5VmoI0EuUIHmQAaE4piquIaQDbtKuK31H2/23q/YzyDqzF/Wr18vDEs1pKamyhyGCT4CyjJkghe0yBDdtj/oL3P+2LZtGyQnJ8O0adPgk08+kbkME1wElGXIMMz5ZefOndCmTRtYtWoVCyET1LBlyDAMwwQ9bBkyDMMwQQ+LIcMwDBP0sBgyDMMwQQ+LIcMwDBP0sBgyDMMwQQ+LIcMwDBP0sBgyDMMwQQ+LIcMwDBP0sBgyDMMwQQ+LIcMwDBP0sBjWMklJSXDs2DHYs2ePzGEY5lIgb96Uc0KJnS8ee+wxyM7Ohj/+4P/Ivq64qMQwXmuCR2K7y5R/KNHlMd5gXdO1a1fYsGEDbN68GVq0aCFzywfjLb6ZMFCmag4eD+M+Xixg7EeMH6kQpg6BtSkjYVfj++GDBsPEy1l5mOfz+XwrA+MaYgxEBQy+q8SALA2W4fa4lLdNdcC4hrV5vKoSKM8Do6CUfh4VgdtZpgyVKf9xJsVWq76V54/Pyx9eeOEFiI2NBZ1OB4sXL5a5TG1yUYkhRqnXqbyRvv0Bg/RigODzAVqFZrMZZs2aJXOYqvBZ8u2QpAsHrUoNrfX1oVlIjCwpH3y+SiDmC43Kaqd4gv6AcQsxYK/6aJbMqR0oVqWf11AXBMrzUJ3Jr9Lz8AfzxNeFyopj+uCMCANXXKRM+Y+qsMi9Uk7s0fLAyCIxMZV/F0zVCTgxDFVpYU3K3bCz8QSYK62mGI2RepsfJ4+A28Jbe3qfaFV0NjSAp+Oupe0UsOzm8FYyVT64DW6L54rThslcNwMHDoQTJ9zBf/1Fo9FQkNRdu3bJHP+YEn01/NJkEllDCnoh+v1MzchKQmtpYlRnWeIGr3dT6hjY3mgcWVRlsazBCLpHxb7C8yh1h8vjcb0oH//GijrG8+N1DI+4gvIRvA58Hngd7UMTPMdCixYtUQU8nmLloVVwXVgT2g+vD4+hoFw3bn9/tPee8Dp/LzrhaUxx2WvNprKGukiYVb8f7YP3UN79lgbr7OuG99LzxWMoVHS/CAZaXrFiBZhM3sj2foGBdS1WmfBiue9GitZf8K/RMqd8FGsS/yKKheNBvF/5M8dA3vyp4GiSIDN9sDtAnWuRiZqBlrlSR/hXefZY/1i3+DyUb9QflO9NeZcU0EPQPCQW5iUMojJ8xr68++678O2338qUn6AIlnoehdOHnWMpUl1HmWVKbDPtVqrbwkeGyxy31ahY8b7k/3scWKYOBZde5ylX4nIixUO6Qf6s8ZA3dwo446NlrkRqtPrEGfeKnxQWFso1prYJKDFsEhINaxuOhBFHP4KuaW/B3NM7qcE95SikxnHYkaWwLPcPT2O5vfAw7LQcLSF8l+vrwcIzP8Hy3N0yp2wGm1tCO/FB4nF6pC2Ez0XDrREWiUJYWElx9IehQ4eC0WiUKf/obmwIf4tG/6qDC0gMxkV1ovybzM3JMup4cB48cPxz6GtqAimyQceGaX3De+C2o0vh+vT/wrVhjSlfob7WRNvMOf09fCbqAb+7PmKbBsLqwvvteegdKHLZ4fmsTe4dBBtS74Vpx7+E9gfehGkx3SBECBg2Uj80ngjjMlbCVWkLYEHiYPhCCHNlRGpCRf22gPsyVsDTWRtJyBAUxa9SRsGAw+/TdSzO+ZnysbMzKrI9vJi9hdK+1BPiiZ2gLYWHoK3Yp6U+Dr4TAlsZj8b2oH1vFXV07aFF5D4OV+tladn3q6DVVm9cyDTlTbL4fHE2iAPN4ZNgmrYA1BmnoGjU9bKk6ti6tCBRxUj95gfeJLdewdMlnwcGRza8vlymasauJvfTN9jhwFx4/OQG8VwN9I1g/WPd4jPcVZQJ/0u6tUTdlgW+S33DmtIzVN6lFJ1XmPAZzzq1Da48OJfeHfQCKej1FR+7LLS70895Hpq04/Q87O2bUj0irgiTsCLzaN1+eUPQfbcbjC8vA2d0ODiaJ1O+OussWfGq3JJCZPrHW2CYvRxUxTYqx0UJTl088GpwNI4H4ysfg2n6Aih48i5xUSW9Wr7b+8vu3buhQ4cOVe+oMZUSUGJY6LRBvtNKImB3OeGP4hNgEXmVkW7L8Vgf3YS4rM7bo3S8ygQbPhSh105tpzQKw/r8/SU+6KVLl0L9+vVlqnJwwky/fv1g//79Msc/jtjOwpf5++ga3hXicIUQcwRF7A0hZk5xJ/utp6jRMQirGWkltvn47B9w0l5A9YX368vMetdDA20ECYhCvNYMH4uOBHLGYQGby0HrCv/K2gyZ9jyqt6PimrDRQ+sOry/DngtWsf1bZ34kN6Y/zDi5no63o/AoqGUnI1UXBavEteI1I/4827aiw4LnVZ7pc0LA8ZpMlViHPYyp9HzxXpU6ahjitQ7Lul+Fvn37wpAhQyA/P1/mVB9VvgVCvvqRGkz9iu3gSI6VJVXH3rYJqGx20BzIJHeddtd+YdXUTaOIndBcRzFsK0ynd/Cg9QzVZX1NGPxoOeb5dv6bs4s6sb51Wxb4LuGzw/pW3qXmomOj8E7OT3DAeprKdxefJFe5wogRI6Bbt24yVX3UmafI4nY0S3JPhEFTN8Tb8VEVFoNu+27QHMwUdZwBLk31m0eHENbQ99aLc56m4+IxnZFV72CXZvny5TRumJGRAXPmBMbwwKVCQIkhNk4DD/8PErXh5C5Bl0pljR7y6Il11PNE7hEWRpqtYteDWYheM30MbJbuOlwGit5otOj5VhecMLNjxw5o1qyZzPGPQ0LIFXKdxR7hmB1/k+facEH3sIJNdBS+LNgnU+fSXB8Lf4oGxZeVeX/BO4lDPcfbZcmQJW5+LTou1wBuPvIhCVW01gC/CBFWwEbKXxTBs4JXdGO0RiHqJc+LFIuOwGm7BRJ1XneVQj3R+O6wHKFGEjnjtFCd6WXHoDzwvcH6VNhTnE3PXaGs+60LVDleQSXLQlX5pKDycNaPBFdoiNcl17UVuejqAqNKR16X0mAdfi/ylbrFTiu6TX3rtizwXTrh8NYFvkv4bBV+EAKrgJ4Q9AbVNpp9x8DeqiHY2zQmobJ1aSlL3KDlqKD2eW7VwRkTDgUvjPY8KxRgV4x/k3kqYtiwYWC1WiExMREmT3Zbt0ztEFBiqPB5/l7ofmghfJr75zkuwLJAy+k6U1Nyt/nTYBe6bMIayCVXLLp6lAV7pjVh0aJFUFBQIFNVB8e1ckTvG+lsSKL7anfgTbo2dA8roBXcPjRRps5lhugcXGlILNGRaBsaDz9LYTstzvGosNwqo0AIRBuxnwJapGglKOD4ru/fykDRQwtV4SpDA/pbIITz9+LjMMh07gzcPNHodgoVPXlJlNogLMxIeoYVgZa27/23EB2EU/YLO97iSK1X5phiWbgM7mu3d7yM/iLqs4WeiTeeZcJsWVq74LNCl3RpLCIf302lbtGCy3EUVVq3+C75ih++S4cq6bTWNmihucKN4uasoP39EIki4CSbOkCVWwCmf7xd4llp9h6RpdXnsssug19//bVWvBZMSVRms9nbul1gcALG/IRBMuXmFtFr3ydEAUERwDEshQmZq2jcEPmowXD6eHF8KFv2KlEcv0ktOWlB2SdOfJhfp94rc92g6CigC2LkyJEQHu6fWxBBd86rr75KvTZ/QFfUjkbjZcpNh4NzqbeNYyg4qcAXHDPFSSU44eORmO4eVxLOll1y9lc63tIGt8Hgw0uo7EdRV9ekvU1W2uToLp7xSGRPcRYMP/oRSRtOKEG3qzJhRQHHHt+IH0BCguBx0ApH9yuOuT5Xrw/lo0CiZTXtxJdUt2h5KnWJ14RjhpMyV5NX6ldRpoCu4HUF+2kfLNvReEIJYcX7xfHUn5tMoskcChsKDsDDx9dW+HxbiHdhmXgnFNDrcEP6u7Re3v0qoAvK4XDAQw89RLP3qgu65PJfnSBTbsyTRb3Y7DTRouju62Sum7DHF9P4FI43WQd0oTx19llwRprAPOkNOp5lyhAhqt4OCs5GDXtuiUyVD7r9b7zxRjh8+DC0bu31MlQEjjvjrF6F3uLbQosNJyX5TjhT3suKnge+SzjOrYDvEnZGEfTqoDcHtysLHIKIjo6GevXcQwg1Aa00w/w1oP15P+S/NpEmsBhnLqVJMsW3X+sZb8WfPGj+OERjj7hu7dOe8hVMD8+njgla6jiJxtHYPSEo9P0NNA7orB8FBc+OojwFFMSagr837NKlCwwaVLKdxHHETZs2wRdffEHtEFN1AkoMa8JjsT3hBlMz6CEsyguFIoYDBgyo8ozSugbdri+f2grHhEWMoDu5gS6ixCQa5tJmzZo10KRJE2jZsqR7kLl4wN8bXnHFFeeIIfL333/TBBsc72aqTkC6SatKlMYAwyJa0+SMCwn2us+ePQvTp0+XOYEDTmVXJgihlXWF6PGnWc+vm4q5cGAnDa2H3377TeYwFyODBw+GU6fcnjJfcNJXXFwcbNly7oxsxj8uessQXSyjIzvAoCNLaOzpQoM/vN+5cyfk5eX59b/QnC/QhfVu0i00nR3dsDizb3lexT8/YS4N0LU2btw4WLduHdx3330yl7mYwGeIbvvjx4+f4+ZetWoVXHPNNfDcc8/Ba6+9JnOZqnLJuEkZhmEYprpcEm5ShmEYhqkJLIYMwzBM0MNiyDAMwwQ9LIYMwzBM0MNiyDAMwwQ9LIYMwzBM0MNiyDAMwwQ9LIYMwzBM0MNiyDAMwwQ9LIYMwzBM0FNnYoj/l15ubi7959V33323zGUYhmGYwEOj1+ufluu1ytatWyE7O5v+l/WioiJYuXKlLGEYhmGYwKJO3aRvv/02WK1WiImJkTkMwzAME3jwmCHDMAwT9NS5GBYUFFBQUZPJJHMYhmEYJrCoczFcsWIF6HQ6yMjIkDkMwzAME1jUeXBfnE2qUqmgZcuWkJ+fL3MZhmEYJnCoc8vQaDTCzz//fI4QPv7445CZmUl/GYZhGOZCcsEm0LRu3RrCwsJgxIgRModhGIZhLgx1LoZqddmnUERQo9HQX4ZhGIa5UNSpGN53332g1Wrh1KlTMsfLq6++Ci6XC3777TeZwzAMwzAXhjoTQ/zv2F5++WX45z//Cffee6/MdYNlt9xyC7Rq1QqGDx8ucxmGYRjmwlDns0kZhmEYJtC5YBNoGIZhGCZQYDFkGIZhgp5y3aQYfolhGIZhLn0A/h+j0zQOCMNh1QAAAABJRU5ErkJggg==&quot;&gt;&lt;/p&gt;" style="text;strokeColor=none;fillColor=none;align=left;verticalAlign=middle;spacingLeft=4;spacingRight=4;overflow=hidden;points=[[0,0.5],[1,0.5]];portConstraint=eastwest;rotatable=0;whiteSpace=wrap;html=1;" vertex="1" parent="q3oR6O9OtUr-k6GNEERS-3">
          <mxGeometry y="220" width="460" height="290" as="geometry" />
        </mxCell>
        <mxCell id="q3oR6O9OtUr-k6GNEERS-16" value="Users" style="swimlane;fontStyle=0;childLayout=stackLayout;horizontal=1;startSize=30;horizontalStack=0;resizeParent=1;resizeParentMax=0;resizeLast=0;collapsible=1;marginBottom=0;whiteSpace=wrap;html=1;" vertex="1" parent="1">
          <mxGeometry x="630" y="120" width="140" height="250" as="geometry" />
        </mxCell>
        <mxCell id="q3oR6O9OtUr-k6GNEERS-17" value="&lt;ul&gt;&lt;li&gt;Id&lt;/li&gt;&lt;li&gt;Nombre&lt;/li&gt;&lt;/ul&gt;" style="text;strokeColor=none;fillColor=none;align=left;verticalAlign=middle;spacingLeft=4;spacingRight=4;overflow=hidden;points=[[0,0.5],[1,0.5]];portConstraint=eastwest;rotatable=0;whiteSpace=wrap;html=1;" vertex="1" parent="q3oR6O9OtUr-k6GNEERS-16">
          <mxGeometry y="30" width="140" height="70" as="geometry" />
        </mxCell>
        <mxCell id="q3oR6O9OtUr-k6GNEERS-18" value="Item 2" style="text;strokeColor=none;fillColor=none;align=left;verticalAlign=middle;spacingLeft=4;spacingRight=4;overflow=hidden;points=[[0,0.5],[1,0.5]];portConstraint=eastwest;rotatable=0;whiteSpace=wrap;html=1;" vertex="1" parent="q3oR6O9OtUr-k6GNEERS-16">
          <mxGeometry y="100" width="140" height="70" as="geometry" />
        </mxCell>
        <mxCell id="q3oR6O9OtUr-k6GNEERS-19" value="Item 3" style="text;strokeColor=none;fillColor=none;align=left;verticalAlign=middle;spacingLeft=4;spacingRight=4;overflow=hidden;points=[[0,0.5],[1,0.5]];portConstraint=eastwest;rotatable=0;whiteSpace=wrap;html=1;" vertex="1" parent="q3oR6O9OtUr-k6GNEERS-16">
          <mxGeometry y="170" width="140" height="80" as="geometry" />
        </mxCell>
      </root>
    </mxGraphModel>
  </diagram>
</mxfile>
